<?xml version="1.0" encoding="utf-8"?>
<!-- Generator: Adobe Illustrator 27.5.0, SVG Export Plug-In . SVG Version: 6.00 Build 0)  -->
<svg version="1.1" xmlns="http://www.w3.org/2000/svg" xmlns:xlink="http://www.w3.org/1999/xlink" x="0px" y="0px"
	 viewBox="0 0 500 500" style="enable-background:new 0 0 500 500;" xml:space="preserve">
<g id="Background_complete">
	<g>
		<g>
			<path style="fill:#F5F5F5;" d="M124.371,164.855c2.093-1.582,5.148-1.761,7.411-0.435c3.005-6.072,11.379-8.752,17.351-5.553
				c1.558-6.544,8.005-11.573,14.731-11.492c6.726,0.081,13.05,5.264,14.45,11.843c0.222,1.045,0.37,2.191,1.117,2.954
				c1.215,1.241,3.243,0.824,4.975,0.689c5.447-0.425,10.928,3.399,12.409,8.658l-75.011-0.273
				C121.147,168.708,122.278,166.436,124.371,164.855z"/>
		</g>
	</g>
	<g>
		<g>
			<path style="fill:#F5F5F5;" d="M401.188,83.282c1.543-1.166,3.795-1.298,5.464-0.32c2.215-4.477,8.389-6.452,12.792-4.094
				c1.149-4.824,5.901-8.532,10.86-8.472c4.959,0.06,9.621,3.881,10.653,8.731c0.164,0.771,0.273,1.615,0.824,2.178
				c0.896,0.915,2.391,0.608,3.667,0.508c4.016-0.313,8.056,2.506,9.148,6.383l-55.3-0.201
				C398.811,86.122,399.644,84.447,401.188,83.282z"/>
		</g>
	</g>
	<g>
		<g>
			<g>
				<g>
					<g>
						<path style="fill:#E0E0E0;" d="M443.92,330.198H263.174c-3.232,0-5.862-2.63-5.862-5.862V61.062
							c0-3.232,2.63-5.862,5.862-5.862H443.92c3.232,0,5.862,2.629,5.862,5.862v263.273
							C449.783,327.568,447.153,330.198,443.92,330.198z M263.174,55.45c-3.095,0-5.612,2.518-5.612,5.612v263.273
							c0,3.095,2.518,5.612,5.612,5.612H443.92c3.095,0,5.612-2.518,5.612-5.612V61.062c0-3.094-2.518-5.612-5.612-5.612H263.174z"
							/>
					</g>
				</g>
				<g>
					<g>
						<path style="fill:#E0E0E0;" d="M235.493,330.198H54.746c-3.232,0-5.862-2.63-5.862-5.862V61.062
							c0-3.232,2.629-5.862,5.862-5.862h180.747c3.232,0,5.862,2.629,5.862,5.862v263.273
							C241.355,327.568,238.725,330.198,235.493,330.198z M54.746,55.45c-3.094,0-5.612,2.518-5.612,5.612v263.273
							c0,3.095,2.518,5.612,5.612,5.612h180.747c3.095,0,5.612-2.518,5.612-5.612V61.062c0-3.094-2.518-5.612-5.612-5.612H54.746z"
							/>
					</g>
				</g>
			</g>
			<g>
				<g>
					<rect x="0" y="391.267" style="fill:#E0E0E0;" width="500" height="0.25"/>
				</g>
			</g>
		</g>
		<rect x="51.672" y="405.531" style="fill:#E0E0E0;" width="16.06" height="0.25"/>
		<rect x="170.352" y="402.821" style="fill:#E0E0E0;" width="53.53" height="0.25"/>
		<rect x="68.732" y="414.821" style="fill:#E0E0E0;" width="36.25" height="0.25"/>
		<rect x="378.352" y="402.691" style="fill:#E0E0E0;" width="43.19" height="0.25"/>
		<rect x="430.452" y="402.691" style="fill:#E0E0E0;" width="6.33" height="0.25"/>
		<rect x="316.212" y="408.921" style="fill:#E0E0E0;" width="53.89" height="0.25"/>
	</g>
	<g>
		<g id="freepik--background-complete--inject-481_00000076572658201811928400000016839736555472166291_">
			<g>
				<polygon style="fill:#F0F0F0;" points="289.366,335.503 289.366,315.822 301.552,315.822 301.552,320.31 309.675,320.31 
					309.675,271.145 325.293,271.145 325.293,290.496 329.979,290.496 329.979,280.833 342.165,280.833 342.165,327.958 
					359.348,327.958 359.348,311.308 370.122,311.308 370.122,275.209 383.419,275.209 383.419,299.275 395.917,299.275 
					395.917,351.121 405.6,351.121 405.6,325.875 415.598,325.875 415.598,309.63 426.219,309.63 426.219,297.157 438.07,303.408 
					438.07,336.777 450.567,336.777 450.567,329.894 467.261,329.894 467.261,391.869 272.943,391.963 272.943,335.503 				"/>
				<rect x="376.487" y="279.47" style="fill:#FAFAFA;" width="3.891" height="4.459"/>
				<rect x="376.487" y="286.946" style="fill:#FAFAFA;" width="3.891" height="4.459"/>
				<rect x="376.487" y="294.426" style="fill:#FAFAFA;" width="3.891" height="4.459"/>
				<rect x="376.487" y="301.902" style="fill:#FAFAFA;" width="3.891" height="4.459"/>
				<rect x="376.487" y="309.378" style="fill:#FAFAFA;" width="3.891" height="4.459"/>
				<rect x="376.487" y="316.858" style="fill:#FAFAFA;" width="3.891" height="4.459"/>
				<rect x="376.487" y="324.334" style="fill:#FAFAFA;" width="3.891" height="4.459"/>
				<rect x="376.487" y="331.815" style="fill:#FAFAFA;" width="3.891" height="4.459"/>
				<rect x="318.039" y="273.5" style="fill:#FAFAFA;" width="3.891" height="4.459"/>
				<rect x="318.039" y="280.976" style="fill:#FAFAFA;" width="3.891" height="4.459"/>
				<rect x="318.039" y="288.457" style="fill:#FAFAFA;" width="3.891" height="4.459"/>
				<rect x="318.039" y="295.932" style="fill:#FAFAFA;" width="3.891" height="4.459"/>
				<rect x="318.039" y="303.413" style="fill:#FAFAFA;" width="3.891" height="4.459"/>
				<rect x="318.039" y="310.889" style="fill:#FAFAFA;" width="3.891" height="4.459"/>
				<rect x="318.039" y="318.369" style="fill:#FAFAFA;" width="3.891" height="4.459"/>
				<rect x="318.039" y="325.845" style="fill:#FAFAFA;" width="3.891" height="4.459"/>
			</g>
			<g>
				<path style="fill:#E0E0E0;" d="M393.675,391.904v-71.708h15.48v71.701L393.675,391.904z"/>
				<rect x="406.103" y="322.473" style="fill:#FAFAFA;" width="1.876" height="3.871"/>
				<rect x="402.351" y="322.473" style="fill:#FAFAFA;" width="1.876" height="3.871"/>
				<rect x="398.598" y="322.473" style="fill:#FAFAFA;" width="1.876" height="3.871"/>
				<rect x="394.845" y="322.473" style="fill:#FAFAFA;" width="1.876" height="3.871"/>
				<rect x="406.103" y="328.966" style="fill:#FAFAFA;" width="1.876" height="3.871"/>
				<rect x="402.351" y="328.966" style="fill:#FAFAFA;" width="1.876" height="3.871"/>
				<rect x="398.598" y="328.966" style="fill:#FAFAFA;" width="1.876" height="3.871"/>
				<rect x="394.845" y="328.966" style="fill:#FAFAFA;" width="1.876" height="3.871"/>
				<rect x="406.103" y="335.454" style="fill:#FAFAFA;" width="1.876" height="3.871"/>
				<rect x="402.351" y="335.454" style="fill:#FAFAFA;" width="1.876" height="3.871"/>
				<rect x="398.598" y="335.454" style="fill:#FAFAFA;" width="1.876" height="3.871"/>
				<rect x="394.845" y="335.454" style="fill:#FAFAFA;" width="1.876" height="3.871"/>
				<rect x="406.103" y="341.942" style="fill:#FAFAFA;" width="1.876" height="3.871"/>
				<rect x="402.351" y="341.942" style="fill:#FAFAFA;" width="1.876" height="3.871"/>
				<rect x="398.598" y="341.942" style="fill:#FAFAFA;" width="1.876" height="3.871"/>
				<rect x="394.845" y="341.942" style="fill:#FAFAFA;" width="1.876" height="3.871"/>
				<rect x="406.103" y="348.43" style="fill:#FAFAFA;" width="1.876" height="3.871"/>
				<rect x="402.351" y="348.43" style="fill:#FAFAFA;" width="1.876" height="3.871"/>
				<rect x="398.598" y="348.43" style="fill:#FAFAFA;" width="1.876" height="3.871"/>
				<rect x="394.845" y="348.43" style="fill:#FAFAFA;" width="1.876" height="3.871"/>
				<rect x="406.103" y="354.918" style="fill:#FAFAFA;" width="1.876" height="3.871"/>
				<rect x="402.351" y="354.918" style="fill:#FAFAFA;" width="1.876" height="3.871"/>
				<rect x="398.598" y="354.918" style="fill:#FAFAFA;" width="1.876" height="3.871"/>
				<rect x="394.845" y="354.918" style="fill:#FAFAFA;" width="1.876" height="3.871"/>
				<rect x="406.103" y="361.406" style="fill:#FAFAFA;" width="1.876" height="3.871"/>
				<rect x="402.351" y="361.406" style="fill:#FAFAFA;" width="1.876" height="3.871"/>
				<rect x="398.598" y="361.406" style="fill:#FAFAFA;" width="1.876" height="3.871"/>
				<rect x="394.845" y="361.406" style="fill:#FAFAFA;" width="1.876" height="3.871"/>
				<rect x="406.103" y="367.899" style="fill:#FAFAFA;" width="1.876" height="3.871"/>
				<rect x="402.351" y="367.899" style="fill:#FAFAFA;" width="1.876" height="3.871"/>
				<rect x="398.598" y="367.899" style="fill:#FAFAFA;" width="1.876" height="3.871"/>
				<rect x="394.845" y="367.899" style="fill:#FAFAFA;" width="1.876" height="3.871"/>
			</g>
			<g>
				<path style="fill:#E6E6E6;" d="M339.884,391.93v-80.01h32.095v80.032C371.979,391.953,340.13,391.963,339.884,391.93z"/>
				<rect x="365.678" y="314.567" style="fill:#E0E0E0;" width="3.891" height="4.459"/>
				<rect x="357.891" y="314.567" style="fill:#E0E0E0;" width="3.891" height="4.459"/>
				<rect x="350.11" y="314.567" style="fill:#E0E0E0;" width="3.891" height="4.459"/>
				<rect x="342.323" y="314.567" style="fill:#E0E0E0;" width="3.891" height="4.459"/>
				<rect x="365.678" y="322.048" style="fill:#E0E0E0;" width="3.891" height="4.459"/>
				<rect x="357.891" y="322.048" style="fill:#E0E0E0;" width="3.891" height="4.459"/>
				<rect x="350.11" y="322.048" style="fill:#E0E0E0;" width="3.891" height="4.459"/>
				<rect x="342.323" y="322.048" style="fill:#E0E0E0;" width="3.891" height="4.459"/>
				<rect x="365.678" y="329.524" style="fill:#E0E0E0;" width="3.891" height="4.459"/>
				<rect x="357.891" y="329.524" style="fill:#E0E0E0;" width="3.891" height="4.459"/>
				<rect x="350.11" y="329.524" style="fill:#E0E0E0;" width="3.891" height="4.459"/>
				<rect x="342.323" y="329.524" style="fill:#E0E0E0;" width="3.891" height="4.459"/>
				<rect x="365.678" y="336.999" style="fill:#E0E0E0;" width="3.891" height="4.459"/>
				<rect x="357.891" y="336.999" style="fill:#E0E0E0;" width="3.891" height="4.459"/>
				<rect x="350.11" y="336.999" style="fill:#E0E0E0;" width="3.891" height="4.459"/>
				<rect x="342.323" y="336.999" style="fill:#E0E0E0;" width="3.891" height="4.459"/>
				<rect x="365.678" y="344.48" style="fill:#E0E0E0;" width="3.891" height="4.459"/>
				<rect x="357.891" y="344.48" style="fill:#E0E0E0;" width="3.891" height="4.459"/>
				<rect x="350.11" y="344.48" style="fill:#E0E0E0;" width="3.891" height="4.459"/>
				<rect x="342.323" y="344.48" style="fill:#E0E0E0;" width="3.891" height="4.459"/>
				<rect x="365.678" y="351.956" style="fill:#E0E0E0;" width="3.891" height="4.459"/>
				<rect x="357.891" y="351.956" style="fill:#E0E0E0;" width="3.891" height="4.459"/>
				<rect x="350.11" y="351.956" style="fill:#E0E0E0;" width="3.891" height="4.459"/>
				<rect x="342.323" y="351.956" style="fill:#E0E0E0;" width="3.891" height="4.459"/>
				<rect x="365.678" y="359.436" style="fill:#E0E0E0;" width="3.891" height="4.459"/>
				<rect x="357.891" y="359.436" style="fill:#E0E0E0;" width="3.891" height="4.459"/>
				<rect x="350.11" y="359.436" style="fill:#E0E0E0;" width="3.891" height="4.459"/>
				<rect x="342.323" y="359.436" style="fill:#E0E0E0;" width="3.891" height="4.459"/>
				<rect x="365.678" y="366.912" style="fill:#E0E0E0;" width="3.891" height="4.459"/>
				<rect x="357.891" y="366.912" style="fill:#E0E0E0;" width="3.891" height="4.459"/>
				<rect x="350.11" y="366.912" style="fill:#E0E0E0;" width="3.891" height="4.459"/>
				<rect x="342.323" y="366.912" style="fill:#E0E0E0;" width="3.891" height="4.459"/>
			</g>
			<g>
				<path style="fill:#E6E6E6;" d="M414.784,391.894v-85.568h13.277v85.636C423.859,391.859,414.784,391.894,414.784,391.894z"/>
				<rect x="422.205" y="307.911" style="fill:#FAFAFA;" width="3.891" height="4.459"/>
				<rect x="422.205" y="315.387" style="fill:#FAFAFA;" width="3.891" height="4.459"/>
				<rect x="422.205" y="322.868" style="fill:#FAFAFA;" width="3.891" height="4.459"/>
				<rect x="422.205" y="330.343" style="fill:#FAFAFA;" width="3.891" height="4.459"/>
				<rect x="422.205" y="337.819" style="fill:#FAFAFA;" width="3.891" height="4.459"/>
				<rect x="422.205" y="345.3" style="fill:#FAFAFA;" width="3.891" height="4.459"/>
				<rect x="422.205" y="352.775" style="fill:#FAFAFA;" width="3.891" height="4.459"/>
				<rect x="422.205" y="360.256" style="fill:#FAFAFA;" width="3.891" height="4.459"/>
				<rect x="417.001" y="307.911" style="fill:#FAFAFA;" width="3.891" height="4.459"/>
				<rect x="417.001" y="315.387" style="fill:#FAFAFA;" width="3.891" height="4.459"/>
				<rect x="417.001" y="322.868" style="fill:#FAFAFA;" width="3.891" height="4.459"/>
				<rect x="417.001" y="330.343" style="fill:#FAFAFA;" width="3.891" height="4.459"/>
				<rect x="417.001" y="337.819" style="fill:#FAFAFA;" width="3.891" height="4.459"/>
				<rect x="417.001" y="345.3" style="fill:#FAFAFA;" width="3.891" height="4.459"/>
				<rect x="417.001" y="352.775" style="fill:#FAFAFA;" width="3.891" height="4.459"/>
				<rect x="417.001" y="360.256" style="fill:#FAFAFA;" width="3.891" height="4.459"/>
			</g>
			<g>
				<rect x="287.609" y="307.852" style="fill:#E6E6E6;" width="23.434" height="84.111"/>
				<rect x="300.709" y="311.328" style="fill:#FAFAFA;" width="6.868" height="4.459"/>
				<rect x="300.709" y="318.809" style="fill:#FAFAFA;" width="6.868" height="4.459"/>
				<rect x="300.709" y="326.284" style="fill:#FAFAFA;" width="6.868" height="4.459"/>
				<rect x="300.709" y="333.765" style="fill:#FAFAFA;" width="6.868" height="4.459"/>
				<rect x="300.709" y="341.241" style="fill:#FAFAFA;" width="6.868" height="4.459"/>
				<rect x="300.709" y="348.716" style="fill:#FAFAFA;" width="6.868" height="4.459"/>
				<rect x="300.709" y="356.197" style="fill:#FAFAFA;" width="6.868" height="4.459"/>
				<rect x="300.709" y="363.673" style="fill:#FAFAFA;" width="6.868" height="4.459"/>
				<rect x="291.52" y="311.328" style="fill:#FAFAFA;" width="6.868" height="4.459"/>
				<rect x="291.52" y="318.809" style="fill:#FAFAFA;" width="6.868" height="4.459"/>
				<rect x="291.52" y="326.284" style="fill:#FAFAFA;" width="6.868" height="4.459"/>
				<rect x="291.52" y="333.765" style="fill:#FAFAFA;" width="6.868" height="4.459"/>
				<rect x="291.52" y="341.241" style="fill:#FAFAFA;" width="6.868" height="4.459"/>
				<rect x="291.52" y="348.716" style="fill:#FAFAFA;" width="6.868" height="4.459"/>
				<rect x="291.52" y="356.197" style="fill:#FAFAFA;" width="6.868" height="4.459"/>
				<rect x="291.52" y="363.673" style="fill:#FAFAFA;" width="6.868" height="4.459"/>
			</g>
			<g>
				<path style="fill:#E0E0E0;" d="M326.374,391.937v-62.413h10.221v62.408L326.374,391.937z"/>
				<rect x="334.581" y="331.499" style="fill:#FAFAFA;" width="1.239" height="3.323"/>
				<rect x="332.102" y="331.499" style="fill:#FAFAFA;" width="1.239" height="3.323"/>
				<rect x="329.628" y="331.499" style="fill:#FAFAFA;" width="1.239" height="3.323"/>
				<rect x="327.149" y="331.499" style="fill:#FAFAFA;" width="1.239" height="3.323"/>
				<rect x="334.581" y="337.073" style="fill:#FAFAFA;" width="1.239" height="3.323"/>
				<rect x="332.102" y="337.073" style="fill:#FAFAFA;" width="1.239" height="3.323"/>
				<rect x="329.628" y="337.073" style="fill:#FAFAFA;" width="1.239" height="3.323"/>
				<rect x="327.149" y="337.073" style="fill:#FAFAFA;" width="1.239" height="3.323"/>
				<rect x="334.581" y="342.648" style="fill:#FAFAFA;" width="1.239" height="3.323"/>
				<rect x="332.102" y="342.648" style="fill:#FAFAFA;" width="1.239" height="3.323"/>
				<rect x="329.628" y="342.648" style="fill:#FAFAFA;" width="1.239" height="3.323"/>
				<rect x="327.149" y="342.648" style="fill:#FAFAFA;" width="1.239" height="3.323"/>
				<rect x="334.581" y="348.223" style="fill:#FAFAFA;" width="1.239" height="3.323"/>
				<rect x="332.102" y="348.223" style="fill:#FAFAFA;" width="1.239" height="3.323"/>
				<rect x="329.628" y="348.223" style="fill:#FAFAFA;" width="1.239" height="3.323"/>
				<rect x="327.149" y="348.223" style="fill:#FAFAFA;" width="1.239" height="3.323"/>
				<rect x="334.581" y="353.802" style="fill:#FAFAFA;" width="1.239" height="3.323"/>
				<rect x="332.102" y="353.802" style="fill:#FAFAFA;" width="1.239" height="3.323"/>
				<rect x="329.628" y="353.802" style="fill:#FAFAFA;" width="1.239" height="3.323"/>
				<rect x="327.149" y="353.802" style="fill:#FAFAFA;" width="1.239" height="3.323"/>
				<rect x="334.581" y="359.377" style="fill:#FAFAFA;" width="1.239" height="3.323"/>
				<rect x="332.102" y="359.377" style="fill:#FAFAFA;" width="1.239" height="3.323"/>
				<rect x="329.628" y="359.377" style="fill:#FAFAFA;" width="1.239" height="3.323"/>
				<rect x="327.149" y="359.377" style="fill:#FAFAFA;" width="1.239" height="3.323"/>
				<rect x="334.581" y="364.952" style="fill:#FAFAFA;" width="1.239" height="3.323"/>
				<rect x="332.102" y="364.952" style="fill:#FAFAFA;" width="1.239" height="3.323"/>
				<rect x="329.628" y="364.952" style="fill:#FAFAFA;" width="1.239" height="3.323"/>
				<rect x="327.149" y="364.952" style="fill:#FAFAFA;" width="1.239" height="3.323"/>
				<rect x="334.581" y="370.526" style="fill:#FAFAFA;" width="1.239" height="3.323"/>
				<rect x="332.102" y="370.526" style="fill:#FAFAFA;" width="1.239" height="3.323"/>
				<rect x="329.628" y="370.526" style="fill:#FAFAFA;" width="1.239" height="3.323"/>
				<rect x="327.149" y="370.526" style="fill:#FAFAFA;" width="1.239" height="3.323"/>
			</g>
			<g>
				<path style="fill:#FAFAFA;" d="M426.876,391.963v-53.186h27.325v53.098L426.876,391.963z"/>
				<rect x="448.819" y="340.431" style="fill:#E0E0E0;" width="3.313" height="2.79"/>
				<rect x="442.193" y="340.431" style="fill:#E0E0E0;" width="3.313" height="2.79"/>
				<rect x="435.571" y="340.431" style="fill:#E0E0E0;" width="3.313" height="2.79"/>
				<rect x="428.945" y="340.431" style="fill:#E0E0E0;" width="3.313" height="2.79"/>
				<rect x="448.819" y="345.107" style="fill:#E0E0E0;" width="3.313" height="2.79"/>
				<rect x="442.193" y="345.107" style="fill:#E0E0E0;" width="3.313" height="2.79"/>
				<rect x="435.571" y="345.107" style="fill:#E0E0E0;" width="3.313" height="2.79"/>
				<rect x="428.945" y="345.107" style="fill:#E0E0E0;" width="3.313" height="2.79"/>
				<rect x="448.819" y="349.783" style="fill:#E0E0E0;" width="3.313" height="2.79"/>
				<rect x="442.193" y="349.783" style="fill:#E0E0E0;" width="3.313" height="2.79"/>
				<rect x="435.571" y="349.783" style="fill:#E0E0E0;" width="3.313" height="2.79"/>
				<rect x="428.945" y="349.783" style="fill:#E0E0E0;" width="3.313" height="2.79"/>
				<rect x="448.819" y="354.459" style="fill:#E0E0E0;" width="3.313" height="2.79"/>
				<rect x="442.193" y="354.459" style="fill:#E0E0E0;" width="3.313" height="2.79"/>
				<rect x="435.571" y="354.459" style="fill:#E0E0E0;" width="3.313" height="2.79"/>
				<rect x="428.945" y="354.459" style="fill:#E0E0E0;" width="3.313" height="2.79"/>
				<rect x="448.819" y="359.13" style="fill:#E0E0E0;" width="3.313" height="2.79"/>
				<rect x="442.193" y="359.13" style="fill:#E0E0E0;" width="3.313" height="2.79"/>
				<rect x="435.571" y="359.13" style="fill:#E0E0E0;" width="3.313" height="2.79"/>
				<rect x="428.945" y="359.13" style="fill:#E0E0E0;" width="3.313" height="2.79"/>
				<rect x="448.819" y="363.806" style="fill:#E0E0E0;" width="3.313" height="2.79"/>
				<rect x="442.193" y="363.806" style="fill:#E0E0E0;" width="3.313" height="2.79"/>
				<rect x="435.571" y="363.806" style="fill:#E0E0E0;" width="3.313" height="2.79"/>
				<rect x="428.945" y="363.806" style="fill:#E0E0E0;" width="3.313" height="2.79"/>
				<rect x="448.819" y="368.482" style="fill:#E0E0E0;" width="3.313" height="2.79"/>
				<rect x="442.193" y="368.482" style="fill:#E0E0E0;" width="3.313" height="2.79"/>
				<rect x="435.571" y="368.482" style="fill:#E0E0E0;" width="3.313" height="2.79"/>
				<rect x="428.945" y="368.482" style="fill:#E0E0E0;" width="3.313" height="2.79"/>
			</g>
		</g>
	</g>
	<g>
		<g id="freepik--background-complete--inject-481_00000022527367420093248380000002188455320640152767_">
			<g>
				<polygon style="fill:#F0F0F0;" points="72.096,335.503 72.096,315.822 84.282,315.822 84.282,320.31 92.404,320.31 
					92.404,271.145 108.022,271.145 108.022,290.496 112.708,290.496 112.708,280.833 124.894,280.833 124.894,327.958 
					142.078,327.958 142.078,311.308 152.852,311.308 152.852,275.209 166.149,275.209 166.149,299.275 178.646,299.275 
					178.646,351.121 188.329,351.121 188.329,325.875 198.328,325.875 198.328,309.63 208.949,309.63 208.949,297.157 
					220.799,303.408 220.799,336.777 233.297,336.777 233.297,329.894 249.991,329.894 249.991,391.869 55.673,391.963 
					55.673,335.503 				"/>
				<rect x="159.216" y="279.47" style="fill:#FAFAFA;" width="3.891" height="4.459"/>
				<rect x="159.216" y="286.946" style="fill:#FAFAFA;" width="3.891" height="4.459"/>
				<rect x="159.216" y="294.426" style="fill:#FAFAFA;" width="3.891" height="4.459"/>
				<rect x="159.216" y="301.902" style="fill:#FAFAFA;" width="3.891" height="4.459"/>
				<rect x="159.216" y="309.378" style="fill:#FAFAFA;" width="3.891" height="4.459"/>
				<rect x="159.216" y="316.858" style="fill:#FAFAFA;" width="3.891" height="4.459"/>
				<rect x="159.216" y="324.334" style="fill:#FAFAFA;" width="3.891" height="4.459"/>
				<rect x="159.216" y="331.815" style="fill:#FAFAFA;" width="3.891" height="4.459"/>
				<rect x="100.769" y="273.5" style="fill:#FAFAFA;" width="3.891" height="4.459"/>
				<rect x="100.769" y="280.976" style="fill:#FAFAFA;" width="3.891" height="4.459"/>
				<rect x="100.769" y="288.457" style="fill:#FAFAFA;" width="3.891" height="4.459"/>
				<rect x="100.769" y="295.932" style="fill:#FAFAFA;" width="3.891" height="4.459"/>
				<rect x="100.769" y="303.413" style="fill:#FAFAFA;" width="3.891" height="4.459"/>
				<rect x="100.769" y="310.889" style="fill:#FAFAFA;" width="3.891" height="4.459"/>
				<rect x="100.769" y="318.369" style="fill:#FAFAFA;" width="3.891" height="4.459"/>
				<rect x="100.769" y="325.845" style="fill:#FAFAFA;" width="3.891" height="4.459"/>
			</g>
			<g>
				<path style="fill:#E0E0E0;" d="M176.405,391.904v-71.708h15.48v71.701L176.405,391.904z"/>
				<rect x="188.833" y="322.473" style="fill:#FAFAFA;" width="1.876" height="3.871"/>
				<rect x="185.08" y="322.473" style="fill:#FAFAFA;" width="1.876" height="3.871"/>
				<rect x="181.327" y="322.473" style="fill:#FAFAFA;" width="1.876" height="3.871"/>
				<rect x="177.575" y="322.473" style="fill:#FAFAFA;" width="1.876" height="3.871"/>
				<rect x="188.833" y="328.966" style="fill:#FAFAFA;" width="1.876" height="3.871"/>
				<rect x="185.08" y="328.966" style="fill:#FAFAFA;" width="1.876" height="3.871"/>
				<rect x="181.327" y="328.966" style="fill:#FAFAFA;" width="1.876" height="3.871"/>
				<rect x="177.575" y="328.966" style="fill:#FAFAFA;" width="1.876" height="3.871"/>
				<rect x="188.833" y="335.454" style="fill:#FAFAFA;" width="1.876" height="3.871"/>
				<rect x="185.08" y="335.454" style="fill:#FAFAFA;" width="1.876" height="3.871"/>
				<rect x="181.327" y="335.454" style="fill:#FAFAFA;" width="1.876" height="3.871"/>
				<rect x="177.575" y="335.454" style="fill:#FAFAFA;" width="1.876" height="3.871"/>
				<rect x="188.833" y="341.942" style="fill:#FAFAFA;" width="1.876" height="3.871"/>
				<rect x="185.08" y="341.942" style="fill:#FAFAFA;" width="1.876" height="3.871"/>
				<rect x="181.327" y="341.942" style="fill:#FAFAFA;" width="1.876" height="3.871"/>
				<rect x="177.575" y="341.942" style="fill:#FAFAFA;" width="1.876" height="3.871"/>
				<rect x="188.833" y="348.43" style="fill:#FAFAFA;" width="1.876" height="3.871"/>
				<rect x="185.08" y="348.43" style="fill:#FAFAFA;" width="1.876" height="3.871"/>
				<rect x="181.327" y="348.43" style="fill:#FAFAFA;" width="1.876" height="3.871"/>
				<rect x="177.575" y="348.43" style="fill:#FAFAFA;" width="1.876" height="3.871"/>
				<rect x="188.833" y="354.918" style="fill:#FAFAFA;" width="1.876" height="3.871"/>
				<rect x="185.08" y="354.918" style="fill:#FAFAFA;" width="1.876" height="3.871"/>
				<rect x="181.327" y="354.918" style="fill:#FAFAFA;" width="1.876" height="3.871"/>
				<rect x="177.575" y="354.918" style="fill:#FAFAFA;" width="1.876" height="3.871"/>
				<rect x="188.833" y="361.406" style="fill:#FAFAFA;" width="1.876" height="3.871"/>
				<rect x="185.08" y="361.406" style="fill:#FAFAFA;" width="1.876" height="3.871"/>
				<rect x="181.327" y="361.406" style="fill:#FAFAFA;" width="1.876" height="3.871"/>
				<rect x="177.575" y="361.406" style="fill:#FAFAFA;" width="1.876" height="3.871"/>
				<rect x="188.833" y="367.899" style="fill:#FAFAFA;" width="1.876" height="3.871"/>
				<rect x="185.08" y="367.899" style="fill:#FAFAFA;" width="1.876" height="3.871"/>
				<rect x="181.327" y="367.899" style="fill:#FAFAFA;" width="1.876" height="3.871"/>
				<rect x="177.575" y="367.899" style="fill:#FAFAFA;" width="1.876" height="3.871"/>
			</g>
			<g>
				<path style="fill:#E6E6E6;" d="M122.613,391.93v-80.01h32.095v80.032C154.708,391.953,122.859,391.963,122.613,391.93z"/>
				<rect x="148.408" y="314.567" style="fill:#E0E0E0;" width="3.891" height="4.459"/>
				<rect x="140.621" y="314.567" style="fill:#E0E0E0;" width="3.891" height="4.459"/>
				<rect x="132.839" y="314.567" style="fill:#E0E0E0;" width="3.891" height="4.459"/>
				<rect x="125.052" y="314.567" style="fill:#E0E0E0;" width="3.891" height="4.459"/>
				<rect x="148.408" y="322.048" style="fill:#E0E0E0;" width="3.891" height="4.459"/>
				<rect x="140.621" y="322.048" style="fill:#E0E0E0;" width="3.891" height="4.459"/>
				<rect x="132.839" y="322.048" style="fill:#E0E0E0;" width="3.891" height="4.459"/>
				<rect x="125.052" y="322.048" style="fill:#E0E0E0;" width="3.891" height="4.459"/>
				<rect x="148.408" y="329.524" style="fill:#E0E0E0;" width="3.891" height="4.459"/>
				<rect x="140.621" y="329.524" style="fill:#E0E0E0;" width="3.891" height="4.459"/>
				<rect x="132.839" y="329.524" style="fill:#E0E0E0;" width="3.891" height="4.459"/>
				<rect x="125.052" y="329.524" style="fill:#E0E0E0;" width="3.891" height="4.459"/>
				<rect x="148.408" y="336.999" style="fill:#E0E0E0;" width="3.891" height="4.459"/>
				<rect x="140.621" y="336.999" style="fill:#E0E0E0;" width="3.891" height="4.459"/>
				<rect x="132.839" y="336.999" style="fill:#E0E0E0;" width="3.891" height="4.459"/>
				<rect x="125.052" y="336.999" style="fill:#E0E0E0;" width="3.891" height="4.459"/>
				<rect x="148.408" y="344.48" style="fill:#E0E0E0;" width="3.891" height="4.459"/>
				<rect x="140.621" y="344.48" style="fill:#E0E0E0;" width="3.891" height="4.459"/>
				<rect x="132.839" y="344.48" style="fill:#E0E0E0;" width="3.891" height="4.459"/>
				<rect x="125.052" y="344.48" style="fill:#E0E0E0;" width="3.891" height="4.459"/>
				<rect x="148.408" y="351.956" style="fill:#E0E0E0;" width="3.891" height="4.459"/>
				<rect x="140.621" y="351.956" style="fill:#E0E0E0;" width="3.891" height="4.459"/>
				<rect x="132.839" y="351.956" style="fill:#E0E0E0;" width="3.891" height="4.459"/>
				<rect x="125.052" y="351.956" style="fill:#E0E0E0;" width="3.891" height="4.459"/>
				<rect x="148.408" y="359.436" style="fill:#E0E0E0;" width="3.891" height="4.459"/>
				<rect x="140.621" y="359.436" style="fill:#E0E0E0;" width="3.891" height="4.459"/>
				<rect x="132.839" y="359.436" style="fill:#E0E0E0;" width="3.891" height="4.459"/>
				<rect x="125.052" y="359.436" style="fill:#E0E0E0;" width="3.891" height="4.459"/>
				<rect x="148.408" y="366.912" style="fill:#E0E0E0;" width="3.891" height="4.459"/>
				<rect x="140.621" y="366.912" style="fill:#E0E0E0;" width="3.891" height="4.459"/>
				<rect x="132.839" y="366.912" style="fill:#E0E0E0;" width="3.891" height="4.459"/>
				<rect x="125.052" y="366.912" style="fill:#E0E0E0;" width="3.891" height="4.459"/>
			</g>
			<g>
				<path style="fill:#E6E6E6;" d="M197.513,391.894v-85.568h13.277v85.636C206.589,391.859,197.513,391.894,197.513,391.894z"/>
				<rect x="204.935" y="307.911" style="fill:#FAFAFA;" width="3.891" height="4.459"/>
				<rect x="204.935" y="315.387" style="fill:#FAFAFA;" width="3.891" height="4.459"/>
				<rect x="204.935" y="322.868" style="fill:#FAFAFA;" width="3.891" height="4.459"/>
				<rect x="204.935" y="330.343" style="fill:#FAFAFA;" width="3.891" height="4.459"/>
				<rect x="204.935" y="337.819" style="fill:#FAFAFA;" width="3.891" height="4.459"/>
				<rect x="204.935" y="345.3" style="fill:#FAFAFA;" width="3.891" height="4.459"/>
				<rect x="204.935" y="352.775" style="fill:#FAFAFA;" width="3.891" height="4.459"/>
				<rect x="204.935" y="360.256" style="fill:#FAFAFA;" width="3.891" height="4.459"/>
				<rect x="199.73" y="307.911" style="fill:#FAFAFA;" width="3.891" height="4.459"/>
				<rect x="199.73" y="315.387" style="fill:#FAFAFA;" width="3.891" height="4.459"/>
				<rect x="199.73" y="322.868" style="fill:#FAFAFA;" width="3.891" height="4.459"/>
				<rect x="199.73" y="330.343" style="fill:#FAFAFA;" width="3.891" height="4.459"/>
				<rect x="199.73" y="337.819" style="fill:#FAFAFA;" width="3.891" height="4.459"/>
				<rect x="199.73" y="345.3" style="fill:#FAFAFA;" width="3.891" height="4.459"/>
				<rect x="199.73" y="352.775" style="fill:#FAFAFA;" width="3.891" height="4.459"/>
				<rect x="199.73" y="360.256" style="fill:#FAFAFA;" width="3.891" height="4.459"/>
			</g>
			<g>
				<rect x="70.338" y="307.852" style="fill:#E6E6E6;" width="23.434" height="84.111"/>
				<rect x="83.438" y="311.328" style="fill:#FAFAFA;" width="6.868" height="4.459"/>
				<rect x="83.438" y="318.809" style="fill:#FAFAFA;" width="6.868" height="4.459"/>
				<rect x="83.438" y="326.284" style="fill:#FAFAFA;" width="6.868" height="4.459"/>
				<rect x="83.438" y="333.765" style="fill:#FAFAFA;" width="6.868" height="4.459"/>
				<rect x="83.438" y="341.241" style="fill:#FAFAFA;" width="6.868" height="4.459"/>
				<rect x="83.438" y="348.716" style="fill:#FAFAFA;" width="6.868" height="4.459"/>
				<rect x="83.438" y="356.197" style="fill:#FAFAFA;" width="6.868" height="4.459"/>
				<rect x="83.438" y="363.673" style="fill:#FAFAFA;" width="6.868" height="4.459"/>
				<rect x="74.249" y="311.328" style="fill:#FAFAFA;" width="6.868" height="4.459"/>
				<rect x="74.249" y="318.809" style="fill:#FAFAFA;" width="6.868" height="4.459"/>
				<rect x="74.249" y="326.284" style="fill:#FAFAFA;" width="6.868" height="4.459"/>
				<rect x="74.249" y="333.765" style="fill:#FAFAFA;" width="6.868" height="4.459"/>
				<rect x="74.249" y="341.241" style="fill:#FAFAFA;" width="6.868" height="4.459"/>
				<rect x="74.249" y="348.716" style="fill:#FAFAFA;" width="6.868" height="4.459"/>
				<rect x="74.249" y="356.197" style="fill:#FAFAFA;" width="6.868" height="4.459"/>
				<rect x="74.249" y="363.673" style="fill:#FAFAFA;" width="6.868" height="4.459"/>
			</g>
			<g>
				<path style="fill:#E0E0E0;" d="M109.104,391.937v-62.413h10.221v62.408L109.104,391.937z"/>
				<rect x="117.31" y="331.499" style="fill:#FAFAFA;" width="1.239" height="3.323"/>
				<rect x="114.831" y="331.499" style="fill:#FAFAFA;" width="1.239" height="3.323"/>
				<rect x="112.358" y="331.499" style="fill:#FAFAFA;" width="1.239" height="3.323"/>
				<rect x="109.879" y="331.499" style="fill:#FAFAFA;" width="1.239" height="3.323"/>
				<rect x="117.31" y="337.073" style="fill:#FAFAFA;" width="1.239" height="3.323"/>
				<rect x="114.831" y="337.073" style="fill:#FAFAFA;" width="1.239" height="3.323"/>
				<rect x="112.358" y="337.073" style="fill:#FAFAFA;" width="1.239" height="3.323"/>
				<rect x="109.879" y="337.073" style="fill:#FAFAFA;" width="1.239" height="3.323"/>
				<rect x="117.31" y="342.648" style="fill:#FAFAFA;" width="1.239" height="3.323"/>
				<rect x="114.831" y="342.648" style="fill:#FAFAFA;" width="1.239" height="3.323"/>
				<rect x="112.358" y="342.648" style="fill:#FAFAFA;" width="1.239" height="3.323"/>
				<rect x="109.879" y="342.648" style="fill:#FAFAFA;" width="1.239" height="3.323"/>
				<rect x="117.31" y="348.223" style="fill:#FAFAFA;" width="1.239" height="3.323"/>
				<rect x="114.831" y="348.223" style="fill:#FAFAFA;" width="1.239" height="3.323"/>
				<rect x="112.358" y="348.223" style="fill:#FAFAFA;" width="1.239" height="3.323"/>
				<rect x="109.879" y="348.223" style="fill:#FAFAFA;" width="1.239" height="3.323"/>
				<rect x="117.31" y="353.802" style="fill:#FAFAFA;" width="1.239" height="3.323"/>
				<rect x="114.831" y="353.802" style="fill:#FAFAFA;" width="1.239" height="3.323"/>
				<rect x="112.358" y="353.802" style="fill:#FAFAFA;" width="1.239" height="3.323"/>
				<rect x="109.879" y="353.802" style="fill:#FAFAFA;" width="1.239" height="3.323"/>
				<rect x="117.31" y="359.377" style="fill:#FAFAFA;" width="1.239" height="3.323"/>
				<rect x="114.831" y="359.377" style="fill:#FAFAFA;" width="1.239" height="3.323"/>
				<rect x="112.358" y="359.377" style="fill:#FAFAFA;" width="1.239" height="3.323"/>
				<rect x="109.879" y="359.377" style="fill:#FAFAFA;" width="1.239" height="3.323"/>
				<rect x="117.31" y="364.952" style="fill:#FAFAFA;" width="1.239" height="3.323"/>
				<rect x="114.831" y="364.952" style="fill:#FAFAFA;" width="1.239" height="3.323"/>
				<rect x="112.358" y="364.952" style="fill:#FAFAFA;" width="1.239" height="3.323"/>
				<rect x="109.879" y="364.952" style="fill:#FAFAFA;" width="1.239" height="3.323"/>
				<rect x="117.31" y="370.526" style="fill:#FAFAFA;" width="1.239" height="3.323"/>
				<rect x="114.831" y="370.526" style="fill:#FAFAFA;" width="1.239" height="3.323"/>
				<rect x="112.358" y="370.526" style="fill:#FAFAFA;" width="1.239" height="3.323"/>
				<rect x="109.879" y="370.526" style="fill:#FAFAFA;" width="1.239" height="3.323"/>
			</g>
			<g>
				<path style="fill:#FAFAFA;" d="M209.606,391.963v-53.186h27.325v53.098L209.606,391.963z"/>
				<rect x="231.549" y="340.431" style="fill:#E0E0E0;" width="3.313" height="2.79"/>
				<rect x="224.922" y="340.431" style="fill:#E0E0E0;" width="3.313" height="2.79"/>
				<rect x="218.301" y="340.431" style="fill:#E0E0E0;" width="3.313" height="2.79"/>
				<rect x="211.675" y="340.431" style="fill:#E0E0E0;" width="3.313" height="2.79"/>
				<rect x="231.549" y="345.107" style="fill:#E0E0E0;" width="3.313" height="2.79"/>
				<rect x="224.922" y="345.107" style="fill:#E0E0E0;" width="3.313" height="2.79"/>
				<rect x="218.301" y="345.107" style="fill:#E0E0E0;" width="3.313" height="2.79"/>
				<rect x="211.675" y="345.107" style="fill:#E0E0E0;" width="3.313" height="2.79"/>
				<rect x="231.549" y="349.783" style="fill:#E0E0E0;" width="3.313" height="2.79"/>
				<rect x="224.922" y="349.783" style="fill:#E0E0E0;" width="3.313" height="2.79"/>
				<rect x="218.301" y="349.783" style="fill:#E0E0E0;" width="3.313" height="2.79"/>
				<rect x="211.675" y="349.783" style="fill:#E0E0E0;" width="3.313" height="2.79"/>
				<rect x="231.549" y="354.459" style="fill:#E0E0E0;" width="3.313" height="2.79"/>
				<rect x="224.922" y="354.459" style="fill:#E0E0E0;" width="3.313" height="2.79"/>
				<rect x="218.301" y="354.459" style="fill:#E0E0E0;" width="3.313" height="2.79"/>
				<rect x="211.675" y="354.459" style="fill:#E0E0E0;" width="3.313" height="2.79"/>
				<rect x="231.549" y="359.13" style="fill:#E0E0E0;" width="3.313" height="2.79"/>
				<rect x="224.922" y="359.13" style="fill:#E0E0E0;" width="3.313" height="2.79"/>
				<rect x="218.301" y="359.13" style="fill:#E0E0E0;" width="3.313" height="2.79"/>
				<rect x="211.675" y="359.13" style="fill:#E0E0E0;" width="3.313" height="2.79"/>
				<rect x="231.549" y="363.806" style="fill:#E0E0E0;" width="3.313" height="2.79"/>
				<rect x="224.922" y="363.806" style="fill:#E0E0E0;" width="3.313" height="2.79"/>
				<rect x="218.301" y="363.806" style="fill:#E0E0E0;" width="3.313" height="2.79"/>
				<rect x="211.675" y="363.806" style="fill:#E0E0E0;" width="3.313" height="2.79"/>
				<rect x="231.549" y="368.482" style="fill:#E0E0E0;" width="3.313" height="2.79"/>
				<rect x="224.922" y="368.482" style="fill:#E0E0E0;" width="3.313" height="2.79"/>
				<rect x="218.301" y="368.482" style="fill:#E0E0E0;" width="3.313" height="2.79"/>
				<rect x="211.675" y="368.482" style="fill:#E0E0E0;" width="3.313" height="2.79"/>
			</g>
		</g>
	</g>
	<g>
		<path style="fill:#F0F0F0;" d="M318.579,214.61c-1.843,2.806-3.081,5.888-3.742,9.067l-5.063,0.477l0,9.805l5.064,0.477
			c0.659,3.178,1.899,6.26,3.742,9.067l-3.234,3.906l6.934,6.933l3.906-3.234c2.806,1.842,5.888,3.082,9.067,3.742l0.477,5.064
			l9.805-0.001l0.477-5.063c3.179-0.66,6.261-1.9,9.067-3.742l3.906,3.234l6.934-6.934l-3.234-3.906
			c1.842-2.806,3.082-5.888,3.741-9.067l5.063-0.477l0.001-9.805l-5.063-0.477c-0.66-3.178-1.9-6.26-3.742-9.066l3.234-3.906
			l-6.934-6.934l-3.906,3.234c-2.806-1.843-5.889-3.083-9.067-3.742l-0.477-5.063l-9.806,0.001l-0.477,5.063
			c-3.179,0.66-6.261,1.899-9.067,3.741l-3.906-3.234l-6.934,6.934L318.579,214.61z M349.928,219.568
			c4.906,4.907,4.906,12.862,0,17.769c-4.907,4.907-12.863,4.907-17.769,0c-4.907-4.907-4.907-12.862,0-17.769
			C337.066,214.661,345.021,214.661,349.928,219.568z"/>
	</g>
	<g>
		<path style="fill:#F0F0F0;" d="M234.303,160.085c-3.229,4.917-5.399,10.317-6.557,15.888l-8.872,0.835l-0.001,17.181l8.873,0.836
			c1.155,5.569,3.327,10.969,6.556,15.887l-5.667,6.844l12.149,12.149l6.844-5.666c4.917,3.228,10.318,5.4,15.887,6.556l0.835,8.873
			l17.181-0.001l0.836-8.871c5.57-1.157,10.971-3.329,15.888-6.557l6.845,5.666l12.149-12.149l-5.666-6.844
			c3.228-4.917,5.4-10.317,6.556-15.887l8.871-0.836l0.001-17.181l-8.872-0.836c-1.156-5.569-3.329-10.97-6.557-15.886l5.667-6.844
			l-12.149-12.149l-6.844,5.666c-4.918-3.229-10.318-5.401-15.887-6.557l-0.836-8.872l-17.181,0.001l-0.835,8.872
			c-5.57,1.157-10.97,3.327-15.887,6.556l-6.844-5.667l-12.15,12.15L234.303,160.085z M289.232,168.772
			c8.597,8.597,8.597,22.537,0,31.135c-8.599,8.598-22.539,8.597-31.136,0c-8.598-8.598-8.598-22.537,0-31.135
			C266.694,160.174,280.633,160.174,289.232,168.772z"/>
	</g>
	<g>
		<path style="fill:#F0F0F0;" d="M362.907,178.171c-0.842,1.282-1.408,2.691-1.71,4.144l-2.314,0.218l0,4.481l2.314,0.218
			c0.301,1.452,0.868,2.861,1.71,4.144l-1.478,1.785l3.169,3.169l1.785-1.478c1.283,0.842,2.691,1.408,4.144,1.71l0.218,2.314
			l4.481,0l0.218-2.314c1.453-0.302,2.861-0.868,4.144-1.71l1.785,1.478l3.169-3.169l-1.478-1.785
			c0.842-1.282,1.408-2.691,1.71-4.144l2.314-0.218l0-4.481l-2.314-0.218c-0.302-1.453-0.868-2.861-1.71-4.144l1.478-1.785
			l-3.169-3.169l-1.785,1.478c-1.283-0.842-2.691-1.409-4.144-1.71l-0.218-2.314l-4.481,0l-0.218,2.314
			c-1.453,0.302-2.861,0.868-4.144,1.71l-1.785-1.478l-3.169,3.169L362.907,178.171z M377.234,180.437
			c2.242,2.242,2.242,5.878,0,8.121c-2.243,2.243-5.879,2.242-8.121,0c-2.243-2.243-2.243-5.878,0-8.121
			C371.356,178.194,374.992,178.194,377.234,180.437z"/>
	</g>
	<g>
		<g>
			<path style="fill:#EBEBEB;" d="M194.426,107.016c2.919-2.205,7.178-2.455,10.335-0.606c4.19-8.467,15.867-12.205,24.195-7.743
				c2.172-9.125,11.162-16.138,20.541-16.025c9.379,0.113,18.198,7.34,20.15,16.515c0.31,1.458,0.516,3.055,1.558,4.12
				c1.694,1.73,4.522,1.149,6.937,0.961c7.595-0.592,15.238,4.74,17.304,12.073l-104.599-0.381
				C189.93,112.389,191.507,109.221,194.426,107.016z"/>
		</g>
	</g>
	<g>
		<g>
			<path style="fill:#F0F0F0;" d="M374.537,147.828c1.615-1.22,3.971-1.358,5.717-0.335c2.318-4.684,8.777-6.751,13.384-4.283
				c1.202-5.047,6.175-8.927,11.363-8.864c5.188,0.063,10.066,4.06,11.146,9.135c0.172,0.806,0.285,1.69,0.862,2.279
				c0.937,0.957,2.501,0.636,3.837,0.532c4.201-0.328,8.429,2.622,9.572,6.678l-57.86-0.211
				C372.05,150.8,372.922,149.048,374.537,147.828z"/>
		</g>
	</g>
	<g>
		<g id="freepik--Bitcoin--inject-488_00000123405940103436733520000010461042132830295223_">
			<path style="fill:#E0E0E0;" d="M404.019,238.421c7.492,7.062,18.94,7.084,25.57,0.05l2.359-2.503l-27.132-25.573l-2.359,2.503
				C395.827,219.933,396.526,231.36,404.019,238.421z"/>
			
				<ellipse transform="matrix(0.4624 -0.8867 0.8867 0.4624 27.0214 490.9323)" style="fill:#EBEBEB;" cx="418.382" cy="223.182" rx="18.642" ry="18.642"/>
			<path style="fill:#F5F5F5;" d="M408.145,234.043c5.999,5.654,15.445,5.374,21.099-0.625c5.654-5.999,5.374-15.445-0.624-21.099
				c-5.999-5.654-15.445-5.374-21.099,0.624C401.867,218.943,402.146,228.389,408.145,234.043z"/>
		</g>
		<g>
			<path style="fill:#E0E0E0;" d="M424.263,225.553c-0.116,0.969-0.525,1.848-1.227,2.638l0.301,0.39
				c0.152,0.197,0.214,0.428,0.184,0.691c-0.03,0.263-0.143,0.471-0.341,0.624c-0.198,0.152-0.42,0.208-0.668,0.166
				c-0.248-0.042-0.452-0.166-0.612-0.374l-0.265-0.343c-0.811,0.475-1.625,0.738-2.441,0.786c-0.817,0.049-1.532-0.089-2.146-0.412
				c-0.289-0.159-0.493-0.316-0.613-0.473c-0.161-0.208-0.224-0.446-0.189-0.713c0.034-0.266,0.161-0.484,0.38-0.653
				c0.177-0.136,0.372-0.204,0.588-0.205c0.216,0,0.419,0.059,0.61,0.177c0.379,0.255,0.811,0.374,1.296,0.357
				c0.485-0.016,0.957-0.135,1.416-0.357l-2.512-3.389c-1.081,0.385-2.037,0.549-2.868,0.493c-0.831-0.057-1.523-0.444-2.076-1.162
				c-0.561-0.729-0.783-1.533-0.664-2.412c0.119-0.879,0.571-1.713,1.356-2.501l-0.252-0.328c-0.152-0.198-0.216-0.426-0.192-0.686
				c0.024-0.259,0.129-0.461,0.317-0.605c0.198-0.152,0.428-0.209,0.69-0.171c0.262,0.039,0.47,0.157,0.622,0.354l0.241,0.312
				c0.908-0.566,1.75-0.834,2.528-0.803c0.779,0.031,1.401,0.348,1.866,0.951c0.176,0.229,0.25,0.476,0.22,0.738
				c-0.029,0.264-0.148,0.475-0.357,0.636c-0.187,0.144-0.392,0.207-0.614,0.188c-0.222-0.019-0.416-0.115-0.581-0.286
				c-0.199-0.195-0.478-0.291-0.833-0.291c-0.357,0.001-0.744,0.105-1.165,0.313l2.223,3.014c2.358-0.838,4.057-0.58,5.1,0.773
				C424.152,223.731,424.379,224.585,424.263,225.553z M415.338,223.013c0.365,0.043,0.848-0.019,1.451-0.185l-1.922-2.525
				c-0.381,0.41-0.601,0.807-0.66,1.192c-0.059,0.386,0.031,0.735,0.272,1.048C414.687,222.814,414.973,222.971,415.338,223.013z
				 M422.49,225.402c0.047-0.467-0.058-0.867-0.315-1.2c-0.208-0.27-0.507-0.443-0.896-0.517c-0.389-0.074-0.909-0.017-1.561,0.17
				l2.198,2.885C422.253,226.315,422.444,225.869,422.49,225.402z"/>
		</g>
		<path style="fill:#E0E0E0;" d="M403.521,222.457c0.252-8.274,7.164-14.776,15.438-14.524c8.274,0.252,14.776,7.164,14.524,15.438
			c-0.683-7.549-6.894-13.4-14.47-13.631c-8.274-0.252-15.185,6.25-15.438,14.524C403.52,223.663,403.502,223.06,403.521,222.457z"
			/>
	</g>
	<g>
		<g id="freepik--Bitcoin--inject-488_00000073686110730861761370000015246031250787114380_">
			<path style="fill:#E0E0E0;" d="M62.957,220.837C68,235.09,82.936,242.805,96.316,238.071l4.762-1.685l-18.263-51.612
				l-4.762,1.685C64.673,191.193,57.914,206.585,62.957,220.837z"/>
			
				<ellipse transform="matrix(0.8344 -0.5512 0.5512 0.8344 -100.8446 85.5613)" style="fill:#EBEBEB;" cx="91.946" cy="210.579" rx="27.374" ry="27.374"/>
			<path style="fill:#F5F5F5;" d="M71.285,217.891c4.038,11.411,16.562,17.388,27.972,13.35
				c11.411-4.038,17.388-16.561,13.35-27.972c-4.038-11.411-16.561-17.388-27.972-13.35
				C73.224,193.956,67.247,206.48,71.285,217.891z"/>
		</g>
		<g>
			<path style="fill:#E0E0E0;" d="M98.034,217.625c-0.802,1.188-1.927,2.061-3.373,2.621l0.131,0.712
				c0.066,0.36-0.008,0.703-0.224,1.027c-0.215,0.324-0.503,0.519-0.864,0.585c-0.361,0.066-0.688-0.011-0.984-0.231
				c-0.296-0.221-0.478-0.52-0.548-0.9l-0.115-0.626c-1.378,0.077-2.618-0.127-3.716-0.613c-1.1-0.484-1.941-1.144-2.525-1.978
				c-0.271-0.401-0.432-0.744-0.484-1.029c-0.07-0.38,0.007-0.732,0.232-1.058c0.224-0.325,0.536-0.525,0.935-0.598
				c0.322-0.059,0.624-0.017,0.905,0.128c0.282,0.145,0.508,0.358,0.678,0.64c0.323,0.588,0.808,1.033,1.452,1.337
				c0.644,0.304,1.34,0.466,2.09,0.485l-1.005-6.112c-1.67-0.223-3.029-0.65-4.076-1.281c-1.048-0.632-1.691-1.602-1.931-2.912
				c-0.244-1.328,0.007-2.527,0.752-3.595c0.745-1.068,1.895-1.854,3.451-2.355l-0.11-0.597c-0.066-0.361,0.004-0.702,0.21-1.025
				c0.205-0.322,0.478-0.514,0.82-0.577c0.361-0.066,0.699,0.014,1.015,0.24c0.317,0.227,0.508,0.52,0.574,0.881l0.105,0.569
				c1.565-0.13,2.845,0.086,3.84,0.648c0.996,0.563,1.596,1.395,1.798,2.494c0.077,0.418,0.007,0.789-0.208,1.112
				c-0.215,0.324-0.512,0.521-0.892,0.591c-0.341,0.063-0.651,0.007-0.928-0.168c-0.277-0.174-0.466-0.43-0.567-0.764
				c-0.129-0.388-0.428-0.701-0.893-0.939c-0.466-0.238-1.042-0.363-1.732-0.374l0.88,5.429c3.641,0.489,5.688,1.967,6.141,4.433
				C99.113,215.172,98.835,216.439,98.034,217.625z M88.084,208.316c0.448,0.301,1.121,0.545,2.019,0.733l-0.814-4.588
				c-0.772,0.279-1.327,0.651-1.662,1.114c-0.337,0.465-0.453,0.981-0.349,1.551C87.368,207.619,87.636,208.016,88.084,208.316z
				 M95.821,216.237c0.374-0.579,0.507-1.171,0.395-1.779c-0.091-0.493-0.364-0.919-0.823-1.276
				c-0.458-0.357-1.175-0.633-2.152-0.826l0.933,5.243C94.898,217.27,95.447,216.816,95.821,216.237z"/>
		</g>
		<path style="fill:#E0E0E0;" d="M73.025,199.655c5.885-10.635,19.277-14.487,29.912-8.602c10.635,5.885,14.487,19.277,8.602,29.912
			c4.177-10.317-0.006-22.128-9.745-27.516c-10.635-5.885-24.027-2.033-29.912,8.602C72.215,201.23,72.596,200.43,73.025,199.655z"
			/>
	</g>
	<g>
		<g id="freepik--Bitcoin--inject-488_00000070828846407420734710000004243554645953034396_">
			<path style="fill:#E0E0E0;" d="M121.663,108.015c2.862,9.989,12.785,15.909,22.163,13.222l3.337-0.956l-10.364-36.174
				l-3.338,0.956C124.083,87.75,118.801,98.026,121.663,108.015z"/>
			<path style="fill:#EBEBEB;" d="M158.435,111.319c-5.04,9.087-16.492,12.368-25.579,7.329c-9.087-5.04-12.368-16.492-7.329-25.579
				c5.04-9.087,16.492-12.368,25.579-7.329C160.194,90.78,163.475,102.232,158.435,111.319z"/>
			
				<ellipse transform="matrix(0.2454 -0.9694 0.9694 0.2454 8.0687 214.7538)" style="fill:#F5F5F5;" cx="141.981" cy="102.194" rx="15.064" ry="15.064"/>
		</g>
		<g>
			<path style="fill:#E0E0E0;" d="M145.862,107.283c-0.6,0.781-1.408,1.333-2.424,1.656l0.06,0.494
				c0.03,0.25-0.035,0.482-0.197,0.695c-0.161,0.213-0.367,0.335-0.617,0.365c-0.25,0.03-0.472-0.036-0.665-0.2
				c-0.194-0.164-0.306-0.377-0.338-0.64l-0.053-0.434c-0.949-0.005-1.791-0.197-2.524-0.576c-0.734-0.378-1.284-0.866-1.65-1.463
				c-0.169-0.287-0.265-0.529-0.289-0.726c-0.032-0.263,0.036-0.502,0.204-0.716c0.167-0.213,0.39-0.337,0.667-0.371
				c0.224-0.027,0.428,0.015,0.616,0.126c0.187,0.111,0.334,0.267,0.438,0.468c0.197,0.417,0.511,0.743,0.94,0.978
				c0.429,0.236,0.9,0.376,1.413,0.42l-0.433-4.235c-1.136-0.223-2.05-0.573-2.743-1.05c-0.692-0.478-1.093-1.17-1.203-2.079
				c-0.112-0.921,0.11-1.733,0.666-2.435s1.378-1.192,2.466-1.471l-0.05-0.414c-0.03-0.25,0.032-0.481,0.187-0.694
				c0.154-0.212,0.35-0.333,0.587-0.362c0.25-0.03,0.479,0.039,0.686,0.207c0.208,0.169,0.327,0.378,0.357,0.628l0.048,0.395
				c1.079-0.024,1.949,0.178,2.608,0.605c0.66,0.428,1.036,1.024,1.129,1.787c0.035,0.29-0.028,0.542-0.19,0.754
				c-0.161,0.214-0.374,0.336-0.637,0.368c-0.237,0.029-0.447-0.022-0.63-0.154c-0.183-0.131-0.302-0.314-0.357-0.548
				c-0.073-0.272-0.264-0.499-0.573-0.682c-0.31-0.183-0.7-0.293-1.172-0.329l0.376,3.762c2.478,0.488,3.82,1.588,4.027,3.299
				C146.705,105.645,146.462,106.503,145.862,107.283z M139.427,100.479c0.295,0.225,0.746,0.421,1.354,0.588l-0.366-3.182
				c-0.542,0.159-0.937,0.391-1.187,0.695c-0.251,0.305-0.352,0.654-0.304,1.049C138.964,99.971,139.132,100.255,139.427,100.479z
				 M144.402,106.238c0.281-0.381,0.397-0.782,0.346-1.204c-0.042-0.342-0.212-0.646-0.511-0.91
				c-0.299-0.264-0.78-0.483-1.442-0.657l0.42,3.636C143.725,106.908,144.121,106.619,144.402,106.238z"/>
		</g>
		<path style="fill:#E0E0E0;" d="M129.459,93.906c4.483-7.05,13.832-9.13,20.882-4.647c7.049,4.483,9.13,13.832,4.647,20.882
			c3.298-6.902,0.924-15.181-5.531-19.286c-7.049-4.483-16.398-2.403-20.882,4.647C128.837,94.952,129.132,94.419,129.459,93.906z"
			/>
	</g>
</g>
<g id="Background_simple" style="display:none;">
	<g style="display:inline;">
		<path style="fill:#407BFF;" d="M203.036,68.086c-21.564,2.847-42.358,8.907-60.801,18.413
			c-21.737,11.204-43.946,28.659-37.386,51.49c12.11,42.149,70.207,42.917,58.607,71.257c-13.139,32.102-4.328,69.757,54.63,80.228
			c111.982,19.889,247.351-96.484,209.331-160.43C403.747,89.235,317.537,52.972,203.036,68.086z"/>
		<path style="opacity:0.9;fill:#FFFFFF;" d="M203.036,68.086c-21.564,2.847-42.358,8.907-60.801,18.413
			c-21.737,11.204-43.946,28.659-37.386,51.49c12.11,42.149,70.207,42.917,58.607,71.257c-13.139,32.102-4.328,69.757,54.63,80.228
			c111.982,19.889,247.351-96.484,209.331-160.43C403.747,89.235,317.537,52.972,203.036,68.086z"/>
	</g>
</g>
<g id="Shadow">
	<g>
		<g>
			<path style="fill:#F5F5F5;" d="M458.875,448.394c0,3.387-93.517,6.132-208.875,6.132s-208.875-2.745-208.875-6.132
				c0-3.387,93.516-6.132,208.875-6.132S458.875,445.007,458.875,448.394z"/>
		</g>
	</g>
</g>
<g id="Speech_Bubble">
	<g>
		<g>
			<g>
				<g>
					
						<ellipse transform="matrix(0.3427 -0.9394 0.9394 0.3427 -95.6012 279.9938)" style="fill:#407BFF;" cx="152.299" cy="208.319" rx="14.621" ry="14.621"/>
				</g>
				<g>
					<polygon style="fill:#407BFF;" points="146.508,218.205 147.499,221.836 143.297,224.048 142.811,219.402 					"/>
				</g>
			</g>
			<g>
				<path style="fill:#FFFFFF;" d="M151.896,215.442c-0.53,0-0.973-0.171-1.329-0.514c-0.356-0.343-0.534-0.76-0.534-1.252
					c0-0.492,0.175-0.903,0.524-1.233s0.796-0.495,1.339-0.495s0.99,0.165,1.339,0.495c0.35,0.33,0.524,0.741,0.524,1.233
					c0,0.492-0.178,0.909-0.534,1.252C152.87,215.271,152.427,215.442,151.896,215.442z M153.1,210.57h-2.407l-0.602-8.871h3.61
					L153.1,210.57z"/>
			</g>
		</g>
		<path style="fill:none;stroke:#407BFF;stroke-width:0.5;stroke-linecap:round;stroke-linejoin:round;stroke-miterlimit:10;" d="
			M142.804,193.74c-4.252,2.126-7.29,6.51-7.786,11.237"/>
		<path style="fill:none;stroke:#407BFF;stroke-width:0.5;stroke-linecap:round;stroke-linejoin:round;stroke-miterlimit:10;" d="
			M134.867,207.153c-0.129,0.713-0.109,1.454,0.059,2.159"/>
	</g>
</g>
<g id="Arrow">
	<g>
		<path style="fill:#407BFF;" d="M280.262,160.536l-10.666,1.372l6.971,6.109c-14.508,13.042-98.401,104.913-97.847,104.017
			l15.16,14.542l90.134-112.033l6.995,6.13l-0.039-10.754l-0.039-10.754L280.262,160.536z"/>
		<path style="opacity:0.6;fill:#FFFFFF;" d="M280.262,160.536l-10.666,1.372l6.971,6.109
			c-14.508,13.042-98.401,104.913-97.847,104.017l15.16,14.542l90.134-112.033l6.995,6.13l-0.039-10.754l-0.039-10.754
			L280.262,160.536z"/>
	</g>
</g>
<g id="Stairs">
	<g>
		<rect x="137.959" y="415.19" style="fill:#407BFF;" width="121.916" height="29.93"/>
		<rect x="162.23" y="389.075" style="fill:#407BFF;" width="109.114" height="26.115"/>
		<rect x="178.945" y="364.401" style="fill:#407BFF;" width="100.628" height="24.674"/>
		<rect x="197.176" y="339.076" style="fill:#407BFF;" width="91.602" height="25.325"/>
		<rect x="213.132" y="314.791" style="fill:#407BFF;" width="86.37" height="24.285"/>
		<rect x="229.259" y="294.49" style="fill:#407BFF;" width="79.118" height="20.301"/>
		<rect x="242.977" y="274.216" style="fill:#407BFF;" width="73.143" height="20.274"/>
		<rect x="256.317" y="257.212" style="fill:#407BFF;" width="65.372" height="17.497"/>
		<rect x="267.104" y="239.86" style="fill:#407BFF;" width="61.531" height="17.497"/>
		<rect x="279.677" y="222.717" style="fill:#407BFF;" width="53.513" height="17.497"/>
		<rect x="291.85" y="205.317" style="fill:#407BFF;" width="48.141" height="17.497"/>
		<rect x="303.425" y="192.202" style="fill:#407BFF;" width="43.726" height="13.517"/>
		<rect x="312.006" y="178.64" style="fill:#407BFF;" width="37.867" height="13.517"/>
		<rect x="321.975" y="165.108" style="fill:#407BFF;" width="33.153" height="13.517"/>
		<rect x="347.582" y="165.108" style="opacity:0.3;" width="7.546" height="13.049"/>
		<rect x="330.94" y="153.683" style="fill:#407BFF;" width="28.275" height="11.528"/>
		<rect x="242.977" y="415.19" style="opacity:0.3;" width="16.897" height="29.93"/>
		<rect x="254.447" y="389.057" style="opacity:0.3;" width="16.897" height="26.133"/>
		<rect x="262.65" y="364.257" style="opacity:0.3;" width="16.898" height="24.882"/>
		<rect x="271.933" y="338.77" style="opacity:0.3;" width="16.897" height="25.805"/>
		<rect x="282.599" y="314.791" style="opacity:0.3;" width="16.897" height="24.285"/>
		<rect x="291.48" y="294.49" style="opacity:0.3;" width="16.897" height="20.301"/>
		<rect x="299.223" y="274.173" style="opacity:0.3;" width="16.897" height="20.317"/>
		<rect x="306.434" y="257.62" style="opacity:0.3;" width="15.26" height="17.089"/>
		<rect x="313.844" y="240.064" style="opacity:0.3;" width="14.792" height="17.089"/>
		<rect x="320.487" y="222.839" style="opacity:0.3;" width="12.714" height="17.089"/>
		<rect x="329.073" y="205.603" style="opacity:0.3;" width="10.919" height="17.089"/>
		<g>
			<g>
				<path style="fill:#263238;" d="M137.671,416.052c31.647,0,63.295,0,94.942,0c8.828,0,17.656,0,26.484,0
					c0.483,0,0.483-0.75,0-0.75c-31.647,0-63.295,0-94.942,0c-8.828,0-17.656,0-26.484,0
					C137.188,415.302,137.188,416.052,137.671,416.052L137.671,416.052z"/>
			</g>
		</g>
		<g>
			<g>
				<path style="fill:#263238;" d="M161.91,389.195c28.483,0,56.966,0,85.449,0c7.995,0,15.99,0,23.985,0c0.483,0,0.483-0.75,0-0.75
					c-28.483,0-56.966,0-85.448,0c-7.995,0-15.99,0-23.986,0C161.428,388.445,161.427,389.195,161.91,389.195L161.91,389.195z"/>
			</g>
		</g>
		<g>
			<g>
				<path style="fill:#263238;" d="M178.938,364.632c28.483,0,56.966,0,85.449,0c7.995,0,15.99,0,23.986,0
					c0.483,0,0.483-0.75,0-0.75c-28.483,0-56.966,0-85.448,0c-7.995,0-15.99,0-23.986,0
					C178.455,363.882,178.454,364.632,178.938,364.632L178.938,364.632z"/>
			</g>
		</g>
		<g>
			<g>
				<path style="fill:#263238;" d="M197.253,339.145c23.793,0,47.587,0,71.38,0c6.715,0,13.43,0,20.146,0c0.483,0,0.483-0.75,0-0.75
					c-23.793,0-47.587,0-71.38,0c-6.715,0-13.43,0-20.146,0C196.77,338.395,196.77,339.145,197.253,339.145L197.253,339.145z"/>
			</g>
		</g>
		<g>
			<g>
				<path style="fill:#263238;" d="M213.65,315.166c24.596,0,49.192,0,73.787,0c6.98,0,13.96,0,20.94,0c0.483,0,0.483-0.75,0-0.75
					c-24.596,0-49.192,0-73.787,0c-6.98,0-13.96,0-20.94,0C213.167,314.416,213.167,315.166,213.65,315.166L213.65,315.166z"/>
			</g>
		</g>
		<g>
			<g>
				<path style="fill:#263238;" d="M229.621,294.865c22.5,0,45,0,67.5,0c6.333,0,12.667,0,19,0c0.483,0,0.483-0.75,0-0.75
					c-22.5,0-45,0-67.5,0c-6.333,0-12.667,0-19,0C229.138,294.115,229.137,294.865,229.621,294.865L229.621,294.865z"/>
			</g>
		</g>
		<g>
			<g>
				<path style="fill:#263238;" d="M242.977,274.693c20.425,0,40.851,0,61.276,0c5.812,0,11.624,0,17.436,0
					c0.483,0,0.483-0.75,0-0.75c-20.425,0-40.851,0-61.276,0c-5.812,0-11.624,0-17.436,0
					C242.495,273.943,242.494,274.693,242.977,274.693L242.977,274.693z"/>
			</g>
		</g>
		<g>
			<g>
				<path style="fill:#263238;" d="M256.351,257.995c18.778,0,37.555,0,56.333,0c5.318,0,10.635,0,15.953,0
					c0.483,0,0.483-0.75,0-0.75c-18.777,0-37.555,0-56.333,0c-5.318,0-10.635,0-15.953,0
					C255.868,257.245,255.867,257.995,256.351,257.995L256.351,257.995z"/>
			</g>
		</g>
		<g>
			<g>
				<path style="fill:#263238;" d="M267.077,240.589c17.15,0,34.299,0,51.449,0c4.888,0,9.776,0,14.664,0c0.483,0,0.483-0.75,0-0.75
					c-17.15,0-34.299,0-51.449,0c-4.888,0-9.776,0-14.664,0C266.595,239.839,266.594,240.589,267.077,240.589L267.077,240.589z"/>
			</g>
		</g>
		<g>
			<g>
				<path style="fill:#263238;" d="M279.6,223.19c20.131,0,40.261,0,60.392,0c0.483,0,0.483-0.75,0-0.75
					c-20.131,0-40.261,0-60.392,0C279.117,222.44,279.116,223.19,279.6,223.19L279.6,223.19z"/>
			</g>
		</g>
		<g>
			<g>
				<path style="fill:#263238;" d="M292.616,205.614c18.178,0,36.356,0,54.535,0c0.483,0,0.483-0.75,0-0.75
					c-18.178,0-36.356,0-54.535,0C292.134,204.864,292.133,205.614,292.616,205.614L292.616,205.614z"/>
			</g>
		</g>
		<g>
			<g>
				<path style="fill:#263238;" d="M303.53,192.577c15.448,0,30.895,0,46.343,0c0.483,0,0.483-0.75,0-0.75
					c-15.447,0-30.895,0-46.343,0C303.048,191.827,303.047,192.577,303.53,192.577L303.53,192.577z"/>
			</g>
		</g>
		<g>
			<g>
				<path style="fill:#263238;" d="M312.124,179.015c14.335,0,28.669,0,43.004,0c0.483,0,0.483-0.75,0-0.75
					c-14.335,0-28.669,0-43.004,0C311.641,178.265,311.641,179.015,312.124,179.015L312.124,179.015z"/>
			</g>
		</g>
		<rect x="337.903" y="192.659" style="opacity:0.3;" width="9.248" height="12.58"/>
		<rect x="340.616" y="179.08" style="opacity:0.3;" width="9.248" height="12.58"/>
		<rect x="351.669" y="153.65" style="opacity:0.3;" width="7.546" height="11.595"/>
		<g>
			<g>
				<path style="fill:#263238;" d="M322.391,165.587c12.275,0,24.549,0,36.824,0c0.483,0,0.483-0.75,0-0.75
					c-12.275,0-24.549,0-36.824,0C321.908,164.837,321.908,165.587,322.391,165.587L322.391,165.587z"/>
			</g>
		</g>
	</g>
</g>
<g id="Character">
	<g>
		<polygon style="fill:#B97964;" points="106.446,421.497 113.397,420.821 111.717,436.825 104.757,437.503 		"/>
		<path style="fill:#263238;" d="M113.576,433.894l-2.597-0.29c-0.588-0.066-1.172,0.156-1.586,0.568
			c-1.781,1.777-2.8,0.916-4.162-1.093c-1.019-0.23-1.463,0.868-1.591,1.162l-2.922,6.495c-0.251,0.542,0.005,1.164,0.572,1.39
			c0.101,0.04,0.207,0.066,0.317,0.077c3.154,0.352,4.646,0.519,8.571,0.957l12.004,1.34c3.272,0.365,4.408-2.693,3.103-3.134
			c-5.875-1.95-9.92-4.124-11.549-6.009C113.432,435.025,113.821,434.845,113.576,433.894z"/>
		<path style="fill:#407BFF;" d="M118.932,436.432c0.301-0.156,0.508-0.437,0.559-0.757c0.048-0.169-0.009-0.347-0.148-0.459
			c-0.734-0.639-4.191,0.441-4.581,0.57c-0.042,0.009-0.079,0.036-0.099,0.073c-0.037,0.068-0.01,0.151,0.061,0.185
			c0.772,0.269,1.573,0.46,2.39,0.57C117.721,436.738,118.358,436.674,118.932,436.432z M119.105,435.427
			c0.061,0.046,0.084,0.124,0.058,0.195c-0.047,0.229-0.196,0.431-0.408,0.552c-0.814,0.441-2.561,0.017-3.495-0.259
			C116.69,435.502,118.699,435.079,119.105,435.427z"/>
		<path style="fill:#407BFF;" d="M114.83,436.088c1.032-0.278,3.297-1.573,3.304-2.391c0.008-0.171-0.09-0.387-0.522-0.492
			c-1.752-0.392-2.959,2.56-2.978,2.689c-0.025,0.05-0.017,0.109,0.021,0.15c0.032,0.013,0.067,0.017,0.102,0.011L114.83,436.088z
			 M117.516,433.448c0.326,0.069,0.309,0.182,0.303,0.222c0.021,0.502-1.647,1.601-2.784,2.015c0.324-0.684,1.236-2.384,2.363-2.258
			L117.516,433.448z"/>
		<path style="fill:none;stroke:#407BFF;stroke-width:0.5;stroke-linecap:round;stroke-linejoin:round;stroke-miterlimit:10;" d="
			M115.1,436c-0.911,0.016-1.815,0.431-2.403,1.104"/>
		<path style="fill:none;stroke:#407BFF;stroke-width:0.5;stroke-linecap:round;stroke-linejoin:round;stroke-miterlimit:10;" d="
			M116.546,437.335c-0.912,0.016-1.815,0.431-2.403,1.104"/>
		<path style="fill:none;stroke:#407BFF;stroke-width:0.5;stroke-linecap:round;stroke-linejoin:round;stroke-miterlimit:10;" d="
			M118.412,438.53c-0.911,0.016-1.815,0.431-2.402,1.104"/>
		<g>
			<g>
				<polygon style="fill:#407BFF;" points="32.599,339.56 32.789,342.699 67.73,360.55 69.206,357.916 				"/>
				<polygon style="opacity:0.2;enable-background:new    ;" points="32.599,339.56 32.789,342.699 67.73,360.55 69.206,357.916 
									"/>
				<path style="fill:#263238;" d="M58.194,319.301c0,0,4.137-4.472,8.154-2.744c4.018,1.728,3.182,8.578,3.182,8.578l-2.192-1.178
					c0,0,1.546-4.823-1.317-6.004c-2.863-1.181-6.299,2.356-6.299,2.356l-1.224-0.92"/>
				<polygon style="fill:#407BFF;" points="32.599,339.56 34.398,336.464 47.41,314.071 81.148,330.435 69.206,357.916 				"/>
				<path style="fill:#B97964;" d="M68.033,309.676c-0.565,0.093-4.189,3.257-4.963,4.197c-0.774,0.94-0.954,1.609-0.546,2.041
					c0.408,0.432,0.888,0.876,1.031,0.898c0.143,0.023-0.672,0.993,0.065,1.661c0.737,0.668,1.184,0.629,1.184,0.629
					s-0.466,1.54,0.539,2.141c1.005,0.601,1.55,0.174,1.717,0.274c0.167,0.1,1.425-1.57,1.425-1.57l0.944,2.129
					c0,0,0.663-0.478,1.407-1.46c0.744-0.982,1.194-4.029,1.194-4.029l-0.138-2.811l1.589-3.748c0,0-4.62-1.396-4.673-1.294
					C68.755,308.837,68.033,309.676,68.033,309.676z"/>
				<path style="opacity:0.2;enable-background:new    ;" d="M47.41,314.071c0,0,0.62,18.015,10.785,20.767
					c10.165,2.752,22.954-4.403,22.954-4.403"/>
			</g>
		</g>
		<g>
			<path style="fill:#B97964;" d="M175.817,237.965c0,0,1.847-4.645,2.59-5.613c0.743-0.968,2.788-1.273,2.788-1.273
				s7.146-3.974,7.522-3.313c0.376,0.661-0.894,1.49-1.484,1.982c-0.59,0.492-2.084,1.405-2.084,1.405s-0.139,1.146-0.736,1.419
				c0,0,1.433,0.316,0.727,1.236c0,0,1.339,0.387,0.656,1.72c0,0,0.662,1.238-0.012,1.749s-2.036,2.596-3.939,3.131
				c-1.903,0.536-4.32,1.82-4.32,1.82L175.817,237.965z"/>
			<g>
				<g>
					<path style="fill:#A24E3F;" d="M181.224,231.378c1.21,0.027,2.42-0.01,3.626-0.111c-0.053-0.022-0.106-0.044-0.159-0.066
						c0.016,0.019,0.001,0.026-0.013-0.017c0.005,0.017,0.025,0.032,0.034,0.047c0.041,0.065,0.083,0.129,0.114,0.2
						c0.065,0.15,0.099,0.331,0.035,0.491c-0.121,0.299-0.493,0.441-0.775,0.532c-0.376,0.121-0.768,0.187-1.156,0.259
						c-0.682,0.127-1.579,0.247-2.042,0.829c-0.225,0.283-0.245,0.659-0.015,0.946c0.26,0.325,0.679,0.387,1.071,0.378
						c1.058-0.026,2.116-0.256,3.1-0.641c0.267-0.104,0.151-0.54-0.12-0.434c-0.532,0.208-1.081,0.37-1.643,0.477
						c-0.273,0.052-0.548,0.091-0.825,0.116c-0.276,0.025-0.583,0.065-0.859,0.018c-0.19-0.032-0.452-0.151-0.445-0.383
						c0.007-0.22,0.265-0.373,0.434-0.464c0.398-0.213,0.864-0.296,1.303-0.379c0.459-0.087,0.926-0.157,1.369-0.307
						c0.375-0.128,0.775-0.323,0.972-0.686c0.209-0.387,0.105-0.979-0.215-1.29c-0.149-0.145-0.458-0.052-0.65-0.038
						c-0.349,0.025-0.698,0.044-1.047,0.057c-0.699,0.027-1.398,0.032-2.097,0.016C180.935,230.922,180.935,231.372,181.224,231.378
						L181.224,231.378z"/>
				</g>
			</g>
			<g>
				<g>
					<path style="fill:#A24E3F;" d="M181.566,234.477c-0.357,0.244-0.658,0.62-0.671,1.07c-0.013,0.466,0.42,0.799,0.844,0.879
						c0.623,0.117,1.318-0.115,1.928-0.229c0.687-0.129,1.375-0.258,2.062-0.387c0.284-0.053,0.164-0.487-0.12-0.434
						c-1.037,0.194-2.072,0.4-3.111,0.583c-0.332,0.059-1.034,0.131-1.15-0.326c-0.075-0.296,0.231-0.621,0.444-0.767
						C182.031,234.703,181.806,234.313,181.566,234.477L181.566,234.477z"/>
				</g>
			</g>
			<g>
				<g>
					<path style="fill:#A24E3F;" d="M182.265,236.016c-0.338,0.114-0.574,0.473-0.692,0.793c-0.154,0.419,0.066,0.802,0.445,1.009
						c0.49,0.267,1.064,0.161,1.591,0.104c0.615-0.066,1.231-0.133,1.846-0.199c0.285-0.031,0.288-0.481,0-0.45
						c-0.483,0.052-0.965,0.104-1.448,0.156c-0.445,0.048-0.913,0.143-1.362,0.109c-0.237-0.018-0.737-0.171-0.675-0.493
						c0.037-0.194,0.213-0.527,0.414-0.595C182.658,236.357,182.54,235.923,182.265,236.016L182.265,236.016z"/>
				</g>
			</g>
			<g>
				<g>
					<path style="fill:#A24E3F;" d="M180.438,234.32c0.198,1.245-0.352,2.582-1.367,3.328c-0.231,0.17-0.007,0.561,0.227,0.389
						c1.193-0.878,1.806-2.374,1.574-3.837C180.827,233.915,180.393,234.036,180.438,234.32L180.438,234.32z"/>
				</g>
			</g>
		</g>
		<path style="fill:#B97964;" d="M121.376,255.17c-4.326,0.275-8.381-0.863-11.313-3.807c0.898-0.882,1.417-2.369,1.733-3.55
			c0.716-2.701,0.946-5.483,0.678-8.228c-0.114-1.588-0.312-3.168-0.592-4.732l4.257,3.515l4.704,3.83
			c-0.265,0.874-0.459,1.765-0.58,2.663c-0.295,2.516-0.611,6.348,2.756,7.117C123.911,253.511,125.525,255.018,121.376,255.17z"/>
		<path style="opacity:0.2;enable-background:new    ;" d="M112.445,241.668c0,0,2.853,7.1,7.681,4.498l0.179-1.619L112.445,241.668
			z"/>
		<path style="fill:#B97964;" d="M109.762,226.676c1.517-4.612,6.632-7.298,11.423-5.999c6.606,1.801,8.18,10.978,7.176,16.729
			c-1.119,6.402-9.02,10.117-14.355,5.827c-3.556-2.853-3.723-6.535-4.582-12.734C109.237,229.226,109.353,227.92,109.762,226.676z"
			/>
		<path style="fill:#263238;" d="M130.097,224.512c0,0-0.599,0.717-1.171,0.517c0.559-0.93,0.473-2.073-0.216-2.88
			c0,0-0.4,0.986-0.885,1.012c-0.32-2.314-1.378-4.456-3.034-6.139c-2.875-3.121-12.12,1.061-12.12,1.061s-2.246-1.862-5.744,1.381
			c-2.804,2.6-3.072,7.841-2.782,10.095c1.06,2.161,3.518,4.235,6.829,5.261c1.598-1.863,1.679-4.646,1.492-6.569
			c0.488-0.142,0.941-0.4,1.31-0.763c1.432-1.408,0.294-6.232,6.081-5.582c1.013-0.636,2.305-0.657,3.299-0.053
			c1.788,1.012,2.815,6.652,5.251,4.968C130.842,225.137,130.097,224.512,130.097,224.512z"/>
		<path style="fill:#263238;" d="M119.387,231.778c0.08,0.708,0.628,1.194,1.121,1.094c0.493-0.1,0.768-0.752,0.64-1.454
			c-0.127-0.702-0.64-1.193-1.121-1.094C119.546,230.421,119.258,231.064,119.387,231.778z"/>
		<path style="fill:#263238;" d="M125.542,231.014c0.08,0.708,0.64,1.193,1.121,1.094c0.482-0.098,0.768-0.753,0.64-1.454
			c-0.127-0.702-0.64-1.193-1.121-1.094C125.701,229.658,125.419,230.346,125.542,231.014z"/>
		<path style="fill:#263238;" d="M127.435,226.659c-0.1,0.08-0.235,0.105-0.355,0.065c-0.804-0.303-1.722-0.222-2.479,0.218
			c-0.154,0.108-0.367,0.08-0.476-0.064c-0.109-0.144-0.072-0.348,0.082-0.456c0,0,0.001-0.001,0.001-0.001
			c0.942-0.58,2.106-0.697,3.123-0.314c0.177,0.057,0.268,0.241,0.203,0.412c-0.001,0.002-0.002,0.005-0.003,0.007
			C127.507,226.575,127.474,226.62,127.435,226.659z"/>
		<path style="fill:#263238;" d="M117.247,228.882c-0.069,0.012-0.139,0.003-0.2-0.025c-0.148-0.107-0.172-0.312-0.055-0.456
			c0.001-0.002,0.003-0.004,0.005-0.006c0.684-0.853,1.75-1.348,2.857-1.328c0.188,0.014,0.323,0.171,0.302,0.35v0.001
			c-0.025,0.178-0.192,0.309-0.378,0.299l0,0c-0.876,0.008-1.709,0.411-2.247,1.085
			C117.452,228.867,117.348,228.896,117.247,228.882z"/>
		<path style="fill:#B97964;" d="M106.008,235.919c0.728,1.559,2.084,2.759,3.771,3.337c2.24,0.75,3.584-1.151,3.155-3.266
			c-0.4-1.876-2.033-4.589-4.378-4.403C106.211,231.772,105.14,233.993,106.008,235.919z"/>
		<path style="opacity:0.1;fill:none;stroke:#000000;stroke-width:0.5;stroke-miterlimit:10;" d="M111.367,236.436
			c-0.144-1.155-0.854-2.218-1.882-2.82c-0.437-0.256-1.042-0.418-1.455-0.103"/>
		<path style="fill:#263238;" d="M122.542,237.163c-1.405-0.117-2.757-0.519-3.968-1.179c-0.084,0.22-0.134,0.45-0.148,0.682
			c-0.038,0.412,0.031,0.825,0.2,1.199c0.347,0.767,1.215,1.513,3.294,1.7c0.153,0.021,0.307,0.035,0.462,0.041
			c0.243-0.808,0.546-1.601,0.907-2.371C123.289,237.235,123.007,237.22,122.542,237.163z"/>
		<path style="fill:#FFFFFF;" d="M118.608,235.978c-0.084,0.22-0.134,0.45-0.148,0.682c0.533,0.625,1.874,1.004,3.831,1.196
			l0.286-0.699C121.171,237.04,119.819,236.638,118.608,235.978z"/>
		<path style="fill:#F54948;" d="M120.877,238.511c-0.7-0.341-1.463-0.559-2.252-0.645c0.347,0.767,1.215,1.513,3.294,1.7
			C121.7,239.115,121.335,238.746,120.877,238.511z"/>
		<path style="fill:#A24E3F;" d="M123.498,230.466c1.001,1.532,2.225,2.918,3.635,4.118c-0.699,0.704-1.679,1.087-2.677,1.047
			L123.498,230.466z"/>
		<polygon style="fill:#B97964;" points="166.662,394.323 173.313,392.589 175.265,408.635 168.605,410.371 		"/>
		<path style="fill:#263238;" d="M176.426,405.458l-2.607,0.112c-0.59,0.026-1.113,0.334-1.424,0.804
			c-1.344,2.026-2.534,1.333-4.319-0.44c-1.049-0.071-1.236,1.081-1.296,1.391l-1.4,6.855c-0.123,0.573,0.267,1.147,0.872,1.284
			c0.108,0.024,0.218,0.033,0.327,0.027c3.166-0.137,4.663-0.201,8.604-0.371l12.05-0.519c3.285-0.142,3.709-3.333,2.333-3.568
			c-6.189-1.022-10.636-2.547-12.653-4.156C176.539,406.596,176.879,406.359,176.426,405.458z"/>
		<path style="fill:#407BFF;" d="M182.239,407.14c0.259-0.2,0.399-0.509,0.377-0.832c0.009-0.174-0.087-0.341-0.248-0.43
			c-0.862-0.517-4.003,1.078-4.355,1.265c-0.04,0.016-0.069,0.048-0.081,0.087c-0.021,0.073,0.024,0.151,0.102,0.173
			c0.815,0.147,1.642,0.212,2.467,0.196C181.122,407.628,181.731,407.467,182.239,407.14z M182.182,406.123
			c0.07,0.036,0.11,0.109,0.1,0.183c0.005,0.233-0.095,0.455-0.275,0.607c-0.697,0.56-2.503,0.41-3.479,0.281
			C179.835,406.567,181.707,405.841,182.182,406.123z"/>
		<path style="fill:#407BFF;" d="M178.146,407.431c0.947-0.432,2.874-2.057,2.697-2.865c-0.031-0.17-0.175-0.368-0.622-0.406
			c-1.803-0.118-2.321,2.98-2.31,3.11c-0.013,0.053,0.008,0.11,0.054,0.144c0.034,0.008,0.07,0.007,0.102-0.004L178.146,407.431z
			 M180.182,404.414c0.334,0.018,0.344,0.132,0.347,0.173c0.134,0.492-1.252,1.832-2.272,2.415c0.163-0.725,0.674-2.541,1.805-2.59
			L180.182,404.414z"/>
		<path style="fill:none;stroke:#407BFF;stroke-width:0.5;stroke-linecap:round;stroke-linejoin:round;stroke-miterlimit:10;" d="
			M178.391,407.302c-0.888,0.156-1.68,0.704-2.103,1.457"/>
		<path style="fill:none;stroke:#407BFF;stroke-width:0.5;stroke-linecap:round;stroke-linejoin:round;stroke-miterlimit:10;" d="
			M180.106,408.397c-0.888,0.156-1.68,0.704-2.104,1.458"/>
		<path style="fill:none;stroke:#407BFF;stroke-width:0.5;stroke-linecap:round;stroke-linejoin:round;stroke-miterlimit:10;" d="
			M182.201,409.29c-0.888,0.156-1.68,0.704-2.103,1.458"/>
		<g>
			<g>
				<path style="fill:#407BFF;" d="M171.775,375.154c-1.275-7.819-3.089-16.605-6.418-23.794
					c-9.139-19.742-27.935-37.231-38.917-51.443l-24.047,10.984c11.127,10.763,24.262,25.016,36.051,35.371
					c3.721,3.268,7.57,8.262,10.821,11.998c0,0,5.467,11.554,7.332,18.481c1.974,7.336,5.372,19.847,6.74,27.66l12.951-3.076
					C175.589,395.542,173.012,382.746,171.775,375.154z"/>
			</g>
			<g style="opacity:0.2;enable-background:new    ;">
				<path d="M171.775,375.154c-1.275-7.819-3.089-16.605-6.418-23.794c-9.139-19.742-27.935-37.231-38.917-51.443l-24.047,10.984
					c11.127,10.763,24.262,25.016,36.051,35.371c3.721,3.268,7.57,8.262,10.821,11.998c0,0,5.467,11.554,7.332,18.481
					c1.974,7.336,5.372,19.847,6.74,27.66l12.951-3.076C175.589,395.542,173.012,382.746,171.775,375.154z"/>
			</g>
			<path style="fill:#407BFF;" d="M133.121,310.332c-0.182,0.736-7.075,62.683-10.293,74.51
				c-3.218,11.826-6.659,33.026-7.234,45.698l-12.417,1.387c0,0,1.454-19.456,3.363-53.469c1.909-34.013-4.939-55.079-6.047-64.334
				C99.384,304.869,133.121,310.332,133.121,310.332z"/>
			<path style="opacity:0.2;enable-background:new    ;" d="M133.121,310.332c-0.182,0.736-7.075,62.683-10.293,74.51
				c-3.218,11.826-6.659,33.026-7.234,45.698l-12.417,1.387c0,0,1.454-19.456,3.363-53.469c1.909-34.013-4.939-55.079-6.047-64.334
				C99.384,304.869,133.121,310.332,133.121,310.332z"/>
			<path style="opacity:0.2;enable-background:new    ;" d="M129.762,338.232c0.215-0.746,0-14.336,0-14.336l3.359-5.447
				l-1.497,5.88l2.58,18.113L129.762,338.232z"/>
		</g>
		<path style="fill:#FFFFFF;" d="M109.206,249.875l14.788,1.308c2.715,0.113,6.421,3.667,7.086,7.906
			c3.077,24.648,3.079,46.613,3.079,46.613c-5.833,6.287-14.573,4.041-34.731,4.627l5.002-54.722
			C104.497,252.927,107.432,249.875,109.206,249.875z"/>
		<polygon style="fill:#FFFFFF;" points="123.136,251.02 122,250.803 120.546,247.494 118.797,250.192 112.321,244.383 
			109.483,248.884 115.78,257.537 122.234,258.413 		"/>
		<path style="fill:#407BFF;" d="M120.634,256.257c0,0,8.901,39.681,8.773,41.604c-0.128,1.922-2.39,6.887-2.39,6.887l-5.782-8.928
			l-2.103-39.262L120.634,256.257z"/>
		<path style="fill:#407BFF;" d="M119.031,251.528c0.2,0.05,2.103,2.003,2.103,2.003l-0.601,2.855l-1.502,0.301l-1.903-3.105
			L119.031,251.528z"/>
		<path style="opacity:0.2;enable-background:new    ;" d="M103.18,328.42c0,0,9.785,1.353,14.15,1.621
			c4.364,0.267,5.166,0.962,5.522-0.81c0.356-1.773,0.292-25.731-1.101-30.986c-1.393-5.255-6.38-34.061-6.38-34.061l-12.828,60.952
			L103.18,328.42z"/>
		<g>
			<path style="fill:#263238;" d="M175.621,235.978c0,0-21.264,10.05-27.86,13.135c-6.596,3.085-17.646,1.824-17.646,1.824
				l2.53,15.243c0,0,14.571-5.652,20.871-8.624c10.786-5.089,23.372-13.449,25.401-14.043L175.621,235.978z"/>
			<path style="fill:#263238;" d="M131.617,251.065c0.44,0.661,3.744,40.464,3.857,45.993c0.113,5.528,5.389,18.565,5.389,18.565
				l-8.234-8.515c0,0-2.843-36.799-5.303-42.592c-3.056-7.198-6.191-15.683-6.191-15.683l2.57,1.57
				C128.108,250.319,131.617,251.065,131.617,251.065z"/>
			<path style="opacity:0.3;" d="M123.705,250.404l3.9,5.81c0.536,0.798,0.167,1.887-0.743,2.195l-0.592,0.201l2.805,1.476
				l0.748,19.447c0,0-1.223-11.017-1.821-12.71c-1.563-4.426-6.867-17.989-6.867-17.989
				C121.325,248.853,123.705,250.404,123.705,250.404z"/>
			<polygon style="opacity:0.3;" points="133.567,265.82 133.015,258.413 136.551,264.646 			"/>
		</g>
		<g>
			<path style="fill:#263238;" d="M115.865,263.467c0-2.438-5.843-16.382-5.843-16.382l-1.384,1.919l-7.995,3.247l-3.034,18.851
				c-0.004,1.364,2.087,23.36,2.087,23.36c-0.094,1.594-5.402,28.344-5.55,29.884c-0.146,1.523,26.716,4.913,27.462,3.903
				C122.531,326.998,115.865,265.906,115.865,263.467z"/>
			<path style="fill:#263238;" d="M101,252.106c0,0-2.39,0.882-5.296,3.104c-2.905,2.222-10.46,21.21-13.365,26.337
				s-15.07,26.049-14.558,26.528c0.513,0.479,4.785,5.264,6.494,4.409s14.481-18.288,19.144-27.239
				c4.663-8.951,9.52-16.585,9.911-16.869S101,252.106,101,252.106z"/>
			<path style="opacity:0.3;" d="M110.022,247.086l-1.384,1.919c0,0-2.127,7.335-0.691,9.788l2.509,1.073l-1.503,1.687l8.765,20.467
				l-1.97-19.394C114.739,258.573,112.434,252.896,110.022,247.086z"/>
			<polygon style="opacity:0.3;" points="97.907,277.083 102.393,269.688 98.961,286.642 			"/>
			<g style="opacity:0.3;">
				<polygon points="97.63,306.53 107.403,307.269 107.403,310.931 97.016,309.853 				"/>
			</g>
		</g>
	</g>
</g>
<g id="Target">
	<g>
		
			<ellipse transform="matrix(0.3901 -0.9208 0.9208 0.3901 117.9749 392.0633)" style="fill:#407BFF;" cx="354.943" cy="106.976" rx="41.141" ry="41.141"/>
		
			<ellipse transform="matrix(0.3901 -0.9208 0.9208 0.3901 117.9749 392.0633)" style="opacity:0.3;" cx="354.943" cy="106.976" rx="41.141" ry="41.141"/>
		<g>
			
				<ellipse transform="matrix(0.1754 -0.9845 0.9845 0.1754 189.478 431.2224)" style="fill:#407BFF;" cx="352.151" cy="102.505" rx="41.141" ry="41.141"/>
			
				<ellipse transform="matrix(0.3826 -0.9239 0.9239 0.3826 122.7223 388.6519)" style="fill:#FFFFFF;" cx="352.151" cy="102.505" rx="33.165" ry="33.165"/>
			
				<ellipse transform="matrix(0.3406 -0.9402 0.9402 0.3406 135.8235 398.6806)" style="fill:#407BFF;" cx="352.151" cy="102.505" rx="23.204" ry="23.204"/>
			
				<ellipse transform="matrix(0.1785 -0.9839 0.9839 0.1785 188.4419 430.7076)" style="fill:#FFFFFF;" cx="352.151" cy="102.505" rx="14.686" ry="14.686"/>
			<path style="fill:#407BFF;" d="M357.463,100.192c1.215,2.959-0.199,6.343-3.158,7.558c-2.959,1.215-6.343-0.199-7.558-3.158
				c-1.215-2.959,0.199-6.343,3.158-7.558C352.864,95.82,356.248,97.233,357.463,100.192z"/>
		</g>
	</g>
</g>
</svg>
